<mxfile host="app.diagrams.net" modified="2022-01-20T18:37:54.542Z" agent="5.0 (Macintosh; Intel Mac OS X 10_15_7) AppleWebKit/605.1.15 (KHTML, like Gecko) Version/15.2 Safari/605.1.15" etag="SI7ILkpNentTN1xWxxq0" version="16.4.3" type="github">
  <diagram id="UvDCEIfflMKRLIDLEF4H" name="Page-1">
    <mxGraphModel dx="1454" dy="798" grid="1" gridSize="10" guides="1" tooltips="1" connect="1" arrows="1" fold="1" page="1" pageScale="1" pageWidth="827" pageHeight="1169" math="0" shadow="0">
      <root>
        <mxCell id="0" />
        <mxCell id="1" parent="0" />
        <mxCell id="rvHnO2tNSOwmzqi9PNfk-1" value="Vehicle Computer Secondary " style="swimlane;horizontal=0;direction=west;" vertex="1" parent="1">
          <mxGeometry x="530" y="60" width="360" height="160" as="geometry" />
        </mxCell>
        <mxCell id="rvHnO2tNSOwmzqi9PNfk-14" value="" style="group" vertex="1" connectable="0" parent="rvHnO2tNSOwmzqi9PNfk-1">
          <mxGeometry x="40" y="20" width="250" height="80" as="geometry" />
        </mxCell>
        <mxCell id="rvHnO2tNSOwmzqi9PNfk-15" value="&lt;font color=&quot;#000000&quot;&gt;KUKSA.val server&lt;br&gt;&lt;br&gt;&lt;/font&gt;" style="rounded=0;whiteSpace=wrap;html=1;fontColor=#FF0000;" vertex="1" parent="rvHnO2tNSOwmzqi9PNfk-14">
          <mxGeometry x="30" width="249.99999999999997" height="80" as="geometry" />
        </mxCell>
        <mxCell id="rvHnO2tNSOwmzqi9PNfk-16" value="&lt;font color=&quot;#ff0000&quot;&gt;&lt;b&gt;VSS all data&lt;/b&gt;&lt;/font&gt;" style="text;html=1;align=center;verticalAlign=middle;resizable=0;points=[];autosize=1;strokeColor=none;fillColor=none;fontColor=#0000FF;" vertex="1" parent="rvHnO2tNSOwmzqi9PNfk-14">
          <mxGeometry x="114.99924731182796" y="50" width="80" height="20" as="geometry" />
        </mxCell>
        <mxCell id="rvHnO2tNSOwmzqi9PNfk-27" value="Powertrain Domain" style="swimlane;horizontal=0;direction=west;" vertex="1" parent="1">
          <mxGeometry x="530" y="280" width="360" height="160" as="geometry" />
        </mxCell>
        <mxCell id="rvHnO2tNSOwmzqi9PNfk-32" value="" style="group" vertex="1" connectable="0" parent="rvHnO2tNSOwmzqi9PNfk-27">
          <mxGeometry x="40" y="60" width="210" height="80" as="geometry" />
        </mxCell>
        <mxCell id="rvHnO2tNSOwmzqi9PNfk-33" value="&lt;font color=&quot;#000000&quot;&gt;KUKSA.val server&lt;br&gt;&lt;br&gt;&lt;/font&gt;" style="rounded=0;whiteSpace=wrap;html=1;fontColor=#FF0000;" vertex="1" parent="rvHnO2tNSOwmzqi9PNfk-32">
          <mxGeometry y="-40" width="209.99999999999997" height="80" as="geometry" />
        </mxCell>
        <mxCell id="rvHnO2tNSOwmzqi9PNfk-34" value="&lt;font color=&quot;#ff0000&quot;&gt;&lt;b&gt;VSS Powertrain&lt;/b&gt;&lt;/font&gt;" style="text;html=1;align=center;verticalAlign=middle;resizable=0;points=[];autosize=1;strokeColor=none;fillColor=none;fontColor=#0000FF;" vertex="1" parent="rvHnO2tNSOwmzqi9PNfk-32">
          <mxGeometry x="55.00096774193548" y="10" width="100" height="20" as="geometry" />
        </mxCell>
        <mxCell id="rvHnO2tNSOwmzqi9PNfk-39" value="Vehicle Computer Primary " style="swimlane;horizontal=0;" vertex="1" parent="1">
          <mxGeometry x="90" y="60" width="360" height="160" as="geometry" />
        </mxCell>
        <mxCell id="rvHnO2tNSOwmzqi9PNfk-44" value="" style="group" vertex="1" connectable="0" parent="rvHnO2tNSOwmzqi9PNfk-39">
          <mxGeometry x="40" y="20" width="210" height="80" as="geometry" />
        </mxCell>
        <mxCell id="rvHnO2tNSOwmzqi9PNfk-45" value="&lt;font color=&quot;#000000&quot;&gt;KUKSA.val server&lt;br&gt;&lt;br&gt;&lt;/font&gt;" style="rounded=0;whiteSpace=wrap;html=1;fontColor=#FF0000;" vertex="1" parent="rvHnO2tNSOwmzqi9PNfk-44">
          <mxGeometry width="209.99999999999997" height="80" as="geometry" />
        </mxCell>
        <mxCell id="rvHnO2tNSOwmzqi9PNfk-46" value="&lt;font color=&quot;#ff0000&quot;&gt;&lt;b&gt;VSS all data&lt;/b&gt;&lt;/font&gt;" style="text;html=1;align=center;verticalAlign=middle;resizable=0;points=[];autosize=1;strokeColor=none;fillColor=none;fontColor=#0000FF;" vertex="1" parent="rvHnO2tNSOwmzqi9PNfk-44">
          <mxGeometry x="65.00096774193548" y="50" width="80" height="20" as="geometry" />
        </mxCell>
        <mxCell id="rvHnO2tNSOwmzqi9PNfk-47" value="" style="group" vertex="1" connectable="0" parent="rvHnO2tNSOwmzqi9PNfk-39">
          <mxGeometry x="370" y="60" width="70" height="30" as="geometry" />
        </mxCell>
        <mxCell id="rvHnO2tNSOwmzqi9PNfk-48" value="" style="image;html=1;image=img/lib/clip_art/general/Keys_128x128.png;fontColor=#000000;" vertex="1" parent="rvHnO2tNSOwmzqi9PNfk-47">
          <mxGeometry width="30" height="30" as="geometry" />
        </mxCell>
        <mxCell id="rvHnO2tNSOwmzqi9PNfk-49" value="&lt;font style=&quot;font-size: 11px&quot;&gt;TLS&lt;br&gt;&lt;/font&gt;&lt;div style=&quot;text-align: left ; font-size: 11px&quot;&gt;&lt;font style=&quot;font-size: 11px&quot;&gt;JWT&lt;/font&gt;&lt;/div&gt;" style="text;html=1;align=center;verticalAlign=middle;resizable=0;points=[];autosize=1;strokeColor=none;fillColor=none;fontColor=#000000;" vertex="1" parent="rvHnO2tNSOwmzqi9PNfk-47">
          <mxGeometry x="30" width="40" height="30" as="geometry" />
        </mxCell>
        <mxCell id="rvHnO2tNSOwmzqi9PNfk-50" value="&lt;font color=&quot;#0000ff&quot;&gt;VISS&lt;/font&gt;" style="text;html=1;align=center;verticalAlign=middle;resizable=0;points=[];autosize=1;strokeColor=none;fillColor=none;" vertex="1" parent="rvHnO2tNSOwmzqi9PNfk-47">
          <mxGeometry y="-20" width="40" height="20" as="geometry" />
        </mxCell>
        <mxCell id="rvHnO2tNSOwmzqi9PNfk-40" value="" style="group" vertex="1" connectable="0" parent="rvHnO2tNSOwmzqi9PNfk-39">
          <mxGeometry x="340" y="170" width="70" height="30" as="geometry" />
        </mxCell>
        <mxCell id="rvHnO2tNSOwmzqi9PNfk-41" value="" style="image;html=1;image=img/lib/clip_art/general/Keys_128x128.png;fontColor=#000000;" vertex="1" parent="rvHnO2tNSOwmzqi9PNfk-40">
          <mxGeometry width="30" height="30" as="geometry" />
        </mxCell>
        <mxCell id="rvHnO2tNSOwmzqi9PNfk-42" value="&lt;font style=&quot;font-size: 11px&quot;&gt;TLS&lt;br&gt;&lt;/font&gt;&lt;div style=&quot;text-align: left ; font-size: 11px&quot;&gt;&lt;font style=&quot;font-size: 11px&quot;&gt;JWT&lt;/font&gt;&lt;/div&gt;" style="text;html=1;align=center;verticalAlign=middle;resizable=0;points=[];autosize=1;strokeColor=none;fillColor=none;fontColor=#000000;" vertex="1" parent="rvHnO2tNSOwmzqi9PNfk-40">
          <mxGeometry x="30" width="40" height="30" as="geometry" />
        </mxCell>
        <mxCell id="rvHnO2tNSOwmzqi9PNfk-51" value="" style="group" vertex="1" connectable="0" parent="1">
          <mxGeometry x="340" y="80" width="220" height="80" as="geometry" />
        </mxCell>
        <mxCell id="rvHnO2tNSOwmzqi9PNfk-52" value="&lt;font color=&quot;#000000&quot;&gt;VSS Sync&lt;br&gt;&lt;/font&gt;" style="rounded=0;whiteSpace=wrap;html=1;fontColor=#FF0000;" vertex="1" parent="rvHnO2tNSOwmzqi9PNfk-51">
          <mxGeometry width="83.80952380952381" height="80" as="geometry" />
        </mxCell>
        <mxCell id="rvHnO2tNSOwmzqi9PNfk-54" value="" style="edgeStyle=orthogonalEdgeStyle;rounded=0;orthogonalLoop=1;jettySize=auto;html=1;exitX=1;exitY=0.5;exitDx=0;exitDy=0;" edge="1" parent="1" source="rvHnO2tNSOwmzqi9PNfk-52" target="rvHnO2tNSOwmzqi9PNfk-15">
          <mxGeometry relative="1" as="geometry">
            <mxPoint x="495.0009677419355" y="140" as="sourcePoint" />
          </mxGeometry>
        </mxCell>
        <mxCell id="rvHnO2tNSOwmzqi9PNfk-55" style="edgeStyle=orthogonalEdgeStyle;rounded=0;orthogonalLoop=1;jettySize=auto;html=1;exitX=0.75;exitY=1;exitDx=0;exitDy=0;entryX=0.25;entryY=0;entryDx=0;entryDy=0;strokeColor=#0000FF;" edge="1" parent="1" source="rvHnO2tNSOwmzqi9PNfk-45" target="rvHnO2tNSOwmzqi9PNfk-33">
          <mxGeometry relative="1" as="geometry" />
        </mxCell>
        <mxCell id="rvHnO2tNSOwmzqi9PNfk-56" value="Infotainment/Displays" style="swimlane;horizontal=0;direction=east;" vertex="1" parent="1">
          <mxGeometry x="100" y="280" width="360" height="160" as="geometry" />
        </mxCell>
        <mxCell id="rvHnO2tNSOwmzqi9PNfk-57" value="" style="group" vertex="1" connectable="0" parent="rvHnO2tNSOwmzqi9PNfk-56">
          <mxGeometry x="42" y="20" width="250" height="80" as="geometry" />
        </mxCell>
        <mxCell id="rvHnO2tNSOwmzqi9PNfk-58" value="&lt;font color=&quot;#000000&quot;&gt;KUKSA.val server&lt;br&gt;&lt;br&gt;&lt;/font&gt;" style="rounded=0;whiteSpace=wrap;html=1;fontColor=#FF0000;" vertex="1" parent="rvHnO2tNSOwmzqi9PNfk-57">
          <mxGeometry x="30" width="249.99999999999997" height="80" as="geometry" />
        </mxCell>
        <mxCell id="rvHnO2tNSOwmzqi9PNfk-59" value="&lt;font color=&quot;#ff0000&quot;&gt;&lt;b&gt;VSS &amp;nbsp;Infotainment&lt;br&gt;&lt;/b&gt;&lt;/font&gt;" style="text;html=1;align=center;verticalAlign=middle;resizable=0;points=[];autosize=1;strokeColor=none;fillColor=none;fontColor=#0000FF;" vertex="1" parent="rvHnO2tNSOwmzqi9PNfk-57">
          <mxGeometry x="94.99924731182796" y="50" width="120" height="20" as="geometry" />
        </mxCell>
        <mxCell id="rvHnO2tNSOwmzqi9PNfk-61" style="edgeStyle=orthogonalEdgeStyle;rounded=0;orthogonalLoop=1;jettySize=auto;html=1;exitX=0.25;exitY=1;exitDx=0;exitDy=0;entryX=0;entryY=0.5;entryDx=0;entryDy=0;strokeColor=#0000FF;" edge="1" parent="1" source="rvHnO2tNSOwmzqi9PNfk-45" target="rvHnO2tNSOwmzqi9PNfk-58">
          <mxGeometry relative="1" as="geometry">
            <Array as="points">
              <mxPoint x="183" y="230" />
              <mxPoint x="130" y="230" />
              <mxPoint x="130" y="340" />
            </Array>
          </mxGeometry>
        </mxCell>
        <mxCell id="rvHnO2tNSOwmzqi9PNfk-43" value="&lt;font color=&quot;#0000ff&quot;&gt;VISS subscribe&lt;/font&gt;" style="text;html=1;align=center;verticalAlign=middle;resizable=0;points=[];autosize=1;strokeColor=none;fillColor=none;" vertex="1" parent="1">
          <mxGeometry x="330" y="230" width="100" height="20" as="geometry" />
        </mxCell>
        <mxCell id="rvHnO2tNSOwmzqi9PNfk-62" style="edgeStyle=orthogonalEdgeStyle;rounded=0;orthogonalLoop=1;jettySize=auto;html=1;exitX=0.25;exitY=0;exitDx=0;exitDy=0;entryX=0.5;entryY=1;entryDx=0;entryDy=0;strokeColor=#0000FF;" edge="1" parent="1" source="rvHnO2tNSOwmzqi9PNfk-58" target="rvHnO2tNSOwmzqi9PNfk-45">
          <mxGeometry relative="1" as="geometry" />
        </mxCell>
        <mxCell id="rvHnO2tNSOwmzqi9PNfk-63" value="&lt;font color=&quot;#0000ff&quot;&gt;VISS subscribe&lt;/font&gt;" style="text;html=1;align=center;verticalAlign=middle;resizable=0;points=[];autosize=1;strokeColor=none;fillColor=none;" vertex="1" parent="1">
          <mxGeometry x="130" y="230" width="100" height="20" as="geometry" />
        </mxCell>
        <mxCell id="rvHnO2tNSOwmzqi9PNfk-64" value="" style="group" vertex="1" connectable="0" parent="1">
          <mxGeometry x="130" y="250" width="70" height="30" as="geometry" />
        </mxCell>
        <mxCell id="rvHnO2tNSOwmzqi9PNfk-65" value="" style="image;html=1;image=img/lib/clip_art/general/Keys_128x128.png;fontColor=#000000;" vertex="1" parent="rvHnO2tNSOwmzqi9PNfk-64">
          <mxGeometry width="30" height="30" as="geometry" />
        </mxCell>
        <mxCell id="rvHnO2tNSOwmzqi9PNfk-66" value="&lt;font style=&quot;font-size: 11px&quot;&gt;TLS&lt;br&gt;&lt;/font&gt;&lt;div style=&quot;text-align: left ; font-size: 11px&quot;&gt;&lt;font style=&quot;font-size: 11px&quot;&gt;JWT&lt;/font&gt;&lt;/div&gt;" style="text;html=1;align=center;verticalAlign=middle;resizable=0;points=[];autosize=1;strokeColor=none;fillColor=none;fontColor=#000000;" vertex="1" parent="rvHnO2tNSOwmzqi9PNfk-64">
          <mxGeometry x="30" width="40" height="30" as="geometry" />
        </mxCell>
        <mxCell id="rvHnO2tNSOwmzqi9PNfk-67" value="" style="group" vertex="1" connectable="0" parent="1">
          <mxGeometry x="240" y="250" width="70" height="30" as="geometry" />
        </mxCell>
        <mxCell id="rvHnO2tNSOwmzqi9PNfk-68" value="" style="image;html=1;image=img/lib/clip_art/general/Keys_128x128.png;fontColor=#000000;" vertex="1" parent="rvHnO2tNSOwmzqi9PNfk-67">
          <mxGeometry width="30" height="30" as="geometry" />
        </mxCell>
        <mxCell id="rvHnO2tNSOwmzqi9PNfk-69" value="&lt;font style=&quot;font-size: 11px&quot;&gt;TLS&lt;br&gt;&lt;/font&gt;&lt;div style=&quot;text-align: left ; font-size: 11px&quot;&gt;&lt;font style=&quot;font-size: 11px&quot;&gt;JWT&lt;/font&gt;&lt;/div&gt;" style="text;html=1;align=center;verticalAlign=middle;resizable=0;points=[];autosize=1;strokeColor=none;fillColor=none;fontColor=#000000;" vertex="1" parent="rvHnO2tNSOwmzqi9PNfk-67">
          <mxGeometry x="30" width="40" height="30" as="geometry" />
        </mxCell>
        <mxCell id="rvHnO2tNSOwmzqi9PNfk-74" value="&lt;font color=&quot;#0000ff&quot;&gt;VISS&lt;/font&gt;" style="text;html=1;align=center;verticalAlign=middle;resizable=0;points=[];autosize=1;strokeColor=none;fillColor=none;" vertex="1" parent="1">
          <mxGeometry x="240" y="230" width="40" height="20" as="geometry" />
        </mxCell>
      </root>
    </mxGraphModel>
  </diagram>
</mxfile>
